<svg xmlns="http://www.w3.org/2000/svg" xmlns:xlink="http://www.w3.org/1999/xlink" width="100" height="100" viewBox="0 0 100 100"><circle stroke="none" fill="#e7f5ff" r="48%" cx="50%" cy="50%"></circle><g transform="translate(50 50) scale(0.69 0.69) rotate(0) translate(-50 -50)" style="fill:#0059b3"><svg fill="#0059b3" xmlns:x="http://ns.adobe.com/Extensibility/1.0/" xmlns:i="http://ns.adobe.com/AdobeIllustrator/10.0/" xmlns:graph="http://ns.adobe.com/Graphs/1.0/" xmlns="http://www.w3.org/2000/svg" xmlns:xlink="http://www.w3.org/1999/xlink" xmlns:a="http://ns.adobe.com/AdobeSVGViewerExtensions/3.0/" version="1.1" x="0px" y="0px" viewBox="0 0 100 100" enable-background="new 0 0 100 100" xml:space="preserve"><g><g><path d="M13.7,27.2H48v14.2h-1.4c-1.1,0-2,0.9-2,2v10c0,1.1,0.9,2,2,2H48v2c0,1.1,0.9,2,2,2c1.9,0,3.4,1.5,3.4,3.4    c0,0.7-0.2,1.4-0.6,1.9l-1.1-1.9c0,0,0,0,0-0.1c0-0.1-0.1-0.1-0.1-0.2c0,0-0.1-0.1-0.1-0.1c0,0-0.1-0.1-0.1-0.1    c-0.1,0-0.1-0.1-0.2-0.1c0,0,0,0-0.1-0.1c0,0-0.1,0-0.1,0c-0.1,0-0.1-0.1-0.2-0.1c-0.1,0-0.1,0-0.2-0.1c-0.1,0-0.1,0-0.2,0    c-0.1,0-0.1,0-0.2,0c-0.1,0-0.1,0-0.2,0c-0.1,0-0.1,0-0.2,0s-0.1,0-0.2,0c-0.1,0-0.1,0-0.2,0c-0.1,0-0.1,0-0.2,0.1    c-0.1,0-0.1,0.1-0.2,0.1c0,0-0.1,0-0.1,0s0,0-0.1,0c-0.1,0-0.1,0.1-0.2,0.1c0,0-0.1,0.1-0.1,0.1c0,0-0.1,0.1-0.1,0.1    c0,0.1-0.1,0.1-0.1,0.2c0,0,0,0-0.1,0.1l-1.2,1.9c-0.3-0.5-0.5-1.2-0.5-1.8c0-1.1-0.9-2-2-2s-2,0.9-2,2c0,2.1,0.9,4,2.3,5.4    l-4.7,7.6H16c-1.1,0-2,0.9-2,2v12.7c0,1.1,0.9,2,2,2h67.3c1.1,0,2-0.9,2-2V77.8c0-1.1-0.9-2-2-2H59.2l-4.3-7.5    c1.5-1.4,2.5-3.3,2.5-5.5c0-3.4-2.3-6.2-5.4-7.1v-0.3h1.4c1.1,0,2-0.9,2-2v-10c0-1.1-0.9-2-2-2H52V27.2h34.3c3.3,0,6-2.7,6-6v-7.7    c0-3.3-2.7-6-6-6H13.7c-3.3,0-6,2.7-6,6v7.7C7.7,24.5,10.4,27.2,13.7,27.2z M81.3,88.5H18v-8.7h23.3c0,0,0,0,0,0s0,0,0,0H58    c0,0,0,0,0,0s0,0,0,0h23.3V88.5z M54.6,75.8h-9.6l3.6-5.8c0.5,0.1,1,0.2,1.5,0.2c0.4,0,0.9,0,1.3-0.1L54.6,75.8z M51.4,51.4h-2.8    v-6h2.8V51.4z M11.7,13.5c0-1.1,0.9-2,2-2h72.7c1.1,0,2,0.9,2,2v7.7c0,1.1-0.9,2-2,2H13.7c-1.1,0-2-0.9-2-2V13.5z"></path></g></g></svg></g></svg>