<?xml version="1.0" encoding="UTF-8" standalone="no"?>
<!DOCTYPE svg PUBLIC "-//W3C//DTD SVG 1.1//EN" "http://www.w3.org/Graphics/SVG/1.1/DTD/svg11.dtd">
<svg version="1.1" xmlns="http://www.w3.org/2000/svg" xmlns:xlink="http://www.w3.org/1999/xlink" preserveAspectRatio="xMidYMid meet" viewBox="119.91134751773052 44.115300446354354 293.89361702127644 435.11874210683743" width="96" height="143.04"><defs><path d="M123.41 69.6C123.41 56.08 134.37 45.12 147.89 45.12C198.9 45.12 327.46 45.12 378.47 45.12C391.99 45.12 402.95 56.08 402.95 69.6C402.95 136.67 402.95 291.04 402.95 352.53C402.95 386.75 392.96 420.23 374.2 448.86C371.13 453.54 379.95 440.09 374.2 448.86C364.64 463.45 348.38 472.23 330.94 472.23C301.62 472.23 241.6 472.23 212.28 472.23C194.56 472.23 177.74 464.42 166.3 450.88C157.73 440.72 169.91 455.15 166.3 450.88C138.61 418.08 123.41 376.54 123.41 333.61C123.41 275.91 123.41 135.69 123.41 69.6Z" id="b34CjPLvc"></path><path d="M123.78 65.33L123.91 64.66L124.12 63.71L124.37 62.78L124.66 61.86L124.96 61.01L124.98 60.95L125.29 60.18L125.34 60.07L125.72 59.2L126.03 58.57L126.14 58.35L126.6 57.51L127.08 56.7L127.59 55.91L128.13 55.14L128.37 54.83L128.71 54.39L128.92 54.13L129.3 53.66L129.49 53.46L129.93 52.96L130.08 52.81L130.58 52.29L131.26 51.63L131.33 51.57L131.96 51.01L132.69 50.41L133.43 49.84L134.11 49.36L134.2 49.3L135 48.78L135.62 48.42L135.81 48.3L136.64 47.85L137.2 47.57L137.49 47.43L138.01 47.2L138.36 47.04L139.25 46.68L139.69 46.53L140.15 46.36L140.56 46.24L141.07 46.08L141.43 45.98L142.01 45.83L142.96 45.61L143.23 45.56L143.92 45.44L144.15 45.4L144.9 45.3L145.08 45.28L145.88 45.2L146.02 45.19L146.88 45.14L147.89 45.12L380.92 45.12L381.83 45.13L382.73 45.19L383.62 45.28L384.5 45.4L385.36 45.56L386.22 45.76L387.06 45.98L387.88 46.24L388.7 46.53L389.5 46.85L390.28 47.2L391.04 47.57L391.79 47.98L392.52 48.42L393.24 48.88L393.93 49.36L394.6 49.88L395.26 50.42L395.89 50.98L396.5 51.57L397.08 52.18L397.65 52.81L398.19 53.46L398.7 54.13L399.19 54.83L399.65 55.54L400.08 56.27L400.49 57.02L400.87 57.79L401.22 58.57L401.54 59.37L401.83 60.18L402.08 61.01L402.31 61.85L402.5 62.7L402.66 63.57L402.79 64.45L402.88 65.33L402.93 66.23L402.95 67.14L402.95 105.88L175.5 105.88L175.5 201.2L175.48 202.21L175.42 203.21L175.32 204.2L175.18 205.18L175 206.14L174.79 207.09L174.54 208.02L174.25 208.94L173.93 209.85L173.58 210.73L173.19 211.6L172.77 212.46L172.31 213.29L171.83 214.1L171.32 214.89L170.78 215.66L170.2 216.41L169.61 217.14L168.98 217.84L168.33 218.52L167.65 219.17L166.95 219.79L166.22 220.39L165.48 220.96L164.71 221.5L163.91 222.02L163.1 222.5L162.27 222.95L161.42 223.37L160.55 223.76L159.66 224.12L158.76 224.44L157.84 224.72L156.9 224.97L155.95 225.19L154.99 225.37L154.01 225.5L153.03 225.6L152.03 225.67L151.02 225.69L123.41 225.69L123.41 69.6L123.43 68.59L123.49 67.59L123.59 66.6L123.73 65.63L123.78 65.33Z" id="ajawg0G8m"></path><path d="M269 195.6C273.88 195.6 277.83 199.56 277.83 204.44C277.83 214.7 277.83 227.86 277.83 235.92C277.83 246.88 268.94 255.77 257.98 255.77C247.2 255.77 230.9 255.77 219.17 255.77C210.84 255.77 204.08 249.02 204.08 240.68C204.08 231.67 204.08 214.29 204.08 203.92C204.08 199.33 207.81 195.6 212.41 195.6C225.49 195.6 256.01 195.6 269 195.6Z" id="cBdYpMIW6"></path><path d="M204.08 209.29L121.41 252.13" id="fidIoIO10"></path><path d="M400.95 375.76C386.91 386.7 378.13 393.53 374.62 396.26C361.12 406.78 344.5 412.49 327.39 412.49C306.96 412.49 272.73 412.49 252.47 412.49C234.58 412.49 216.94 408.32 200.94 400.32C194.39 397.05 178.02 388.86 151.82 375.76" id="aabw0a739b"></path><path d="M350.51 338.43L241.96 338.43" id="abB1pk6tG"></path><path d="M335.06 217.04L303.6 209.29L277.61 217.04" id="h4uknKldH0"></path><path d="M399.97 195.6C404.85 195.6 408.8 199.56 408.8 204.44C408.8 214.7 408.8 227.86 408.8 235.92C408.8 246.88 399.92 255.77 388.96 255.77C378.18 255.77 361.88 255.77 350.15 255.77C341.81 255.77 335.06 249.02 335.06 240.68C335.06 231.67 335.06 214.29 335.06 203.92C335.06 199.33 338.78 195.6 343.38 195.6C356.47 195.6 386.99 195.6 399.97 195.6Z" id="e7mz8O3XUK"></path></defs><g><g><g><filter id="shadow14448688" x="110.41" y="32.12" width="310.54" height="458.12" filterUnits="userSpaceOnUse" primitiveUnits="userSpaceOnUse"><feFlood></feFlood><feComposite in2="SourceAlpha" operator="in"></feComposite><feGaussianBlur stdDeviation="1"></feGaussianBlur><feOffset dx="5" dy="5" result="afterOffset"></feOffset><feFlood flood-color="#000000" flood-opacity="0.5"></feFlood><feComposite in2="afterOffset" operator="in"></feComposite><feMorphology operator="dilate" radius="1"></feMorphology><feComposite in2="SourceAlpha" operator="out"></feComposite></filter><path d="M123.41 69.6C123.41 56.08 134.37 45.12 147.89 45.12C198.9 45.12 327.46 45.12 378.47 45.12C391.99 45.12 402.95 56.08 402.95 69.6C402.95 136.67 402.95 291.04 402.95 352.53C402.95 386.75 392.96 420.23 374.2 448.86C371.13 453.54 379.95 440.09 374.2 448.86C364.64 463.45 348.38 472.23 330.94 472.23C301.62 472.23 241.6 472.23 212.28 472.23C194.56 472.23 177.74 464.42 166.3 450.88C157.73 440.72 169.91 455.15 166.3 450.88C138.61 418.08 123.41 376.54 123.41 333.61C123.41 275.91 123.41 135.69 123.41 69.6Z" id="a8bBnbXHQ" fill="white" fill-opacity="1" filter="url(#shadow14448688)"></path></g><use xlink:href="#b34CjPLvc" opacity="1" fill="#e0a583" fill-opacity="1"></use></g><g><use xlink:href="#ajawg0G8m" opacity="1" fill="#5b4837" fill-opacity="1"></use></g><g><use xlink:href="#cBdYpMIW6" opacity="1" fill="#ffffff" fill-opacity="0"></use><g><use xlink:href="#cBdYpMIW6" opacity="1" fill-opacity="0" stroke="#000000" stroke-width="3" stroke-opacity="1"></use></g></g><g><g><use xlink:href="#fidIoIO10" opacity="1" fill-opacity="0" stroke="#000000" stroke-width="3" stroke-opacity="1"></use></g></g><g><g><use xlink:href="#aabw0a739b" opacity="1" fill-opacity="0" stroke="#000000" stroke-width="3" stroke-opacity="1"></use></g></g><g><g><use xlink:href="#abB1pk6tG" opacity="1" fill-opacity="0" stroke="#000000" stroke-width="3" stroke-opacity="1"></use></g></g><g><g><use xlink:href="#h4uknKldH0" opacity="1" fill-opacity="0" stroke="#000000" stroke-width="3" stroke-opacity="1"></use></g></g><g><use xlink:href="#e7mz8O3XUK" opacity="1" fill="#ffffff" fill-opacity="0"></use><g><use xlink:href="#e7mz8O3XUK" opacity="1" fill-opacity="0" stroke="#000000" stroke-width="3" stroke-opacity="1"></use></g></g></g></svg>